# xmcd
#
# Track frame offsets:
#	150
#	10431
#	24256
#	34046
#	47326
#	60327
#	74404
#	86358
#	98065
#	122624
#	135104
#	159004
#	175675
#	189118
#	202592
#	215150
#	227729
#	240560
#
# Disc length: 3378
#
# Revision: 1
# Processed by: cddbd v1.5.1PL0 Copyright (c) Steve Scherf et al.
# Submitted via: FreeRIP 2.80 
# Normalized: r0:TDELIM( - )
#
DISCID=cc0d3012
DTITLE=Various Artist - The Blues Singer
DYEAR=2003
DGENRE=Blues
TTITLE0=John Lee Hooker - Dimples
TTITLE1=T-Bone Walker - Call It Stormy Monday
TTITLE2=Mississippi John Hurt - Shake That Thing (Live)
TTITLE3=Arthur 'Big Boy' Crudup - That's Alright
TTITLE4=Jimmy Reed - Shame, Shame, Shame
TTITLE5=Muddy Waters - Rollin' Stone
TTITLE6=Lowell Fulson - Whay Can't You Cry For Me
TTITLE7=BB King - Take A Swing With Me
TTITLE8=Lightnin' Hopkins - Walk A Long Time
TTITLE9=Big Joe Williams - Please Don't Go
TTITLE10=Memphis Slim - Rock Me, Woman
TTITLE11=Lightning Slim - Crazy 'Bout You, Baby
TTITLE12=Jimmy Witherspoon - Ain't Nobody's Business
TTITLE13=Robert Johnson - I Believe I'll Dust My Broom
TTITLE14=Big Joe Turner - The Chill Is On
TTITLE15=Sonny Boy Williamson - Shake The Boogie
TTITLE16=Blind Boy Fuller - Truckin' My Blues Away
TTITLE17=Big Bill Broonzy - Just A Dream (On My Mind)
EXTD=18 Legendary Blues Men
EXTT0=
EXTT1=
EXTT2=
EXTT3=
EXTT4=
EXTT5=
EXTT6=
EXTT7=
EXTT8=
EXTT9=
EXTT10=
EXTT11=
EXTT12=
EXTT13=
EXTT14=
EXTT15=
EXTT16=
EXTT17=
PLAYORDER=
